# xmcd
#
# Track frame offsets:
#	150
#	32743
#	50293
#	73978
#	114620
#	144393
#	164462
#	183801
#	204043
#	219778
#	243963
#	278576
#	301083
#	324648
#
# Disc length: 4394
#
# Revision: 2
# Processed by: cddbd v1.5.1PL0 Copyright (c) Steve Scherf et al.
# Submitted via: CDmax 1.8
# Normalized: r1:DSETVAR1,TDELIM( - )
#
DISCID=bb11280e
DTITLE=Various Artist - Heavy Mental (Or why I'm happily married
DYEAR=2001
DGENRE=Fusion Jazz
TTITLE0=Groverworked and Underpaid - Kirk Whalum
TTITLE1=I Try - Kirk Whalum
TTITLE2=The Ghetto - Kirk Whalum/Bob James
TTITLE3=Mr. Magic - Grover Washington Jr.
TTITLE4=Can you stop the rain - Grover Washington Jr.
TTITLE5=Velvet Rope - Paul Taylor
TTITLE6=Alone with you - Paul Taylor
TTITLE7=Pleasure Seeker - Paul Taylor
TTITLE8=Listen Here - David Sanborn
TTITLE9=Got to give it up - David Sanborn
TTITLE10=A house is not a hime - Nelson Rangell
TTITLE11=(On the) Phone - Nelson Rangell
TTITLE12=Forever Love - Art Porter
TTITLE13=Oakland Stroke - Tower of Power
EXTD=Track 1 and track 2 from Kirk Whalum - Unconditional\nTrack 3 from Kirk Whalum/Bob James - Joined at the hiip\nTrack 4 from Grover Washington - Ultimate Collection\nTrack 5 from Grover Washinton - Soulful Strut\nTrack 6 and track 7 fro
EXTD=m Paul taylor - Under cover\nTrack 8 from Paul Taylor - Pleasure Seeker\nTrack 9 from David Sanborn - Songs from the night before\nTrack 10 from David Sanborn - Hearsay\nTrack 11 and track 12 from Nelson Rangell - Destiny\nTrack 13 fro
EXTD=m Art Porter - Lay your hands on me\nTrack 14 from Tower Of Power - Back to Oakland
EXTT0=
EXTT1=
EXTT2=
EXTT3=
EXTT4=
EXTT5=
EXTT6=
EXTT7=
EXTT8=
EXTT9=
EXTT10=
EXTT11=
EXTT12=
EXTT13=
PLAYORDER=
